{
  "source": "C:\\Users\\Peter\\Desktop\\stuff\\MIUN\\quantitative_research\\video_compression\\videos\\UVG\\YachtRide_1920x1080_120fps_420_8bit_YUV.y4m",
  "output": "C:\\Users\\Peter\\Desktop\\stuff\\MIUN\\quantitative_research\\video_compression\\compressed_videos\\UVG\\av1\\8\\YachtRide_1920x1080_120fps_420_8bit_YUV_av1.mkv",
  "codec": "av1",
  "ok": "[yuv4mpegpipe @ 000001d4e26e5380] Stream #0: not enough frames to estimate rate; consider increasing probesize\nInput #0, yuv4mpegpipe, from 'C:\\Users\\Peter\\Desktop\\stuff\\MIUN\\quantitative_research\\video_compression\\videos\\UVG\\YachtRide_1920x1080_120fps_420_8bit_YUV.y4m':\n  Duration: 00:00:05.00, start: 0.000000, bitrate: 2985989 kb/s\n  Stream #0:0: Video: rawvideo (I420 / 0x30323449), yuv420p(progressive), 1920x1080, 120 fps, 120 tbr, 120 tbn\n[out#0/matroska @ 000001d4e26e90c0] Codec AVOption b:a (set bitrate (in bits/s)) has not been used for any stream. The most likely reason is either wrong type (e.g. a video option with no video streams) or that it is a private option of some decoder which was not actually used for any stream.\nStream mapping:\n  Stream #0:0 -> #0:0 (rawvideo (native) -> av1 (libsvtav1))\nPress [q] to stop, [?] for help\nSvt[info]: -------------------------------------------\nSvt[info]: SVT [version]:\tSVT-AV1 Encoder Lib v3.1.0-19-g6ecfe8ec\nSvt[info]: SVT [build]  :\tGCC 15.2.0\t 64 bit\nSvt[info]: LIB Build date: Aug 17 2025 11:37:13\nSvt[info]: -------------------------------------------\n[libsvtav1 @ 000001d4e26ec1c0] Specified chroma sample location center is unsupported on the AV1 bit stream level. Usage of a container that allows passing this information - such as Matroska - is recommended.\nSvt[info]: Level of Parallelism: 5\nSvt[info]: Number of PPCS 93\nSvt[info]: [asm level on system : up to avx2]\nSvt[info]: [asm level selected : up to avx2]\nSvt[info]: -------------------------------------------\nSvt[info]: SVT [config]: main profile\ttier (auto)\tlevel (auto)\nSvt[info]: SVT [config]: width / height / fps numerator / fps denominator \t\t: 1920 / 1080 / 120 / 1\nSvt[info]: SVT [config]: bit-depth / color format \t\t\t\t\t: 8 / YUV420\nSvt[info]: SVT [config]: preset / tune / pred struct \t\t\t\t\t: 4 / PSNR / random access\nSvt[info]: SVT [config]: gop size / mini-gop size / key-frame type \t\t\t: 641 / 16 / key frame\nSvt[info]: SVT [config]: BRC mode / target bitrate (kbps)\t\t\t\t: VBR / 8000 \nSvt[info]: SVT [config]: AQ mode / Variance Boost \t\t\t\t\t: 2 / 0\nSvt[info]: SVT [config]: sharpness / luminance-based QP bias \t\t\t\t: 0 / 0\nSvt[info]: SVT [config]: QP scale compress strength \t\t\t\t\t: 0\nSvt[info]: -------------------------------------------\nOutput #0, matroska, to 'C:\\Users\\Peter\\Desktop\\stuff\\MIUN\\quantitative_research\\video_compression\\compressed_videos\\UVG\\av1\\8\\YachtRide_1920x1080_120fps_420_8bit_YUV_av1.mkv':\n  Metadata:\n    encoder         : Lavf62.3.100\n  Stream #0:0: Video: av1 (AV01 / 0x31305641), yuv420p(tv, progressive), 1920x1080, q=2-31, 8000 kb/s, 120 fps, 1k tbn\n    Metadata:\n      encoder         : Lavc62.11.100 libsvtav1\n    Side data:\n      cpb: bitrate max/min/avg: 0/0/8000000 buffer size: 8000000 vbv_delay: N/A\nframe=    0 fps=0.0 q=0.0 size=       0KiB time=N/A bitrate=N/A speed=N/A elapsed=0:00:03.16    \nframe=    0 fps=0.0 q=0.0 size=       0KiB time=N/A bitrate=N/A speed=N/A elapsed=0:00:04.06    \nframe=    0 fps=0.0 q=0.0 size=       0KiB time=N/A bitrate=N/A speed=N/A elapsed=0:00:05.18    \nframe=    0 fps=0.0 q=0.0 size=       0KiB time=N/A bitrate=N/A speed=N/A elapsed=0:00:05.70    \nframe=    0 fps=0.0 q=0.0 size=       0KiB time=N/A bitrate=N/A speed=N/A elapsed=0:00:06.27    \nframe=    0 fps=0.0 q=0.0 size=       0KiB time=N/A bitrate=N/A speed=N/A elapsed=0:00:06.87    \nframe=    0 fps=0.0 q=0.0 size=       0KiB time=N/A bitrate=N/A speed=N/A elapsed=0:00:07.56    \nframe=    0 fps=0.0 q=0.0 size=       0KiB time=N/A bitrate=N/A speed=N/A elapsed=0:00:08.14    \nframe=    0 fps=0.0 q=0.0 size=       0KiB time=N/A bitrate=N/A speed=N/A elapsed=0:00:08.67    \nframe=    0 fps=0.0 q=0.0 size=       0KiB time=N/A bitrate=N/A speed=N/A elapsed=0:00:09.22    \nframe=    0 fps=0.0 q=0.0 size=       0KiB time=N/A bitrate=N/A speed=N/A elapsed=0:00:09.73    \nframe=    0 fps=0.0 q=0.0 size=       0KiB time=N/A bitrate=N/A speed=N/A elapsed=0:00:10.25    \nframe=    0 fps=0.0 q=0.0 size=       0KiB time=N/A bitrate=N/A speed=N/A elapsed=0:00:10.76    \nframe=    0 fps=0.0 q=0.0 size=       0KiB time=N/A bitrate=N/A speed=N/A elapsed=0:00:11.27    \nframe=    0 fps=0.0 q=0.0 size=       0KiB time=N/A bitrate=N/A speed=N/A elapsed=0:00:11.83    \nframe=    1 fps=0.1 q=16.0 size=       1KiB time=00:00:00.00 bitrate=N/A speed=   0x elapsed=0:00:12.36    \nframe=    1 fps=0.1 q=16.0 size=       1KiB time=00:00:00.00 bitrate=N/A speed=   0x elapsed=0:00:13.01    \nframe=    1 fps=0.1 q=16.0 size=       1KiB time=00:00:00.00 bitrate=N/A speed=   0x elapsed=0:00:13.57    \nframe=    1 fps=0.1 q=16.0 size=       1KiB time=00:00:00.00 bitrate=N/A speed=   0x elapsed=0:00:14.09    \nframe=    1 fps=0.1 q=16.0 size=       1KiB time=00:00:00.00 bitrate=N/A speed=   0x elapsed=0:00:14.65    \nframe=    1 fps=0.1 q=16.0 size=       1KiB time=00:00:00.00 bitrate=N/A speed=   0x elapsed=0:00:15.21    \nframe=    1 fps=0.1 q=16.0 size=       1KiB time=00:00:00.00 bitrate=N/A speed=   0x elapsed=0:00:15.73    \nframe=    1 fps=0.1 q=16.0 size=       1KiB time=00:00:00.00 bitrate=N/A speed=   0x elapsed=0:00:16.24    \nframe=    1 fps=0.1 q=16.0 size=       1KiB time=00:00:00.00 bitrate=N/A speed=   0x elapsed=0:00:16.77    \nframe=    1 fps=0.1 q=16.0 size=       1KiB time=00:00:00.00 bitrate=N/A speed=   0x elapsed=0:00:17.35    \nframe=    1 fps=0.1 q=16.0 size=       1KiB time=00:00:00.00 bitrate=N/A speed=   0x elapsed=0:00:17.89    \nframe=    1 fps=0.1 q=16.0 size=       1KiB time=00:00:00.00 bitrate=N/A speed=   0x elapsed=0:00:18.47    \nframe=    1 fps=0.1 q=16.0 size=       1KiB time=00:00:00.00 bitrate=N/A speed=   0x elapsed=0:00:18.99    \nframe=    3 fps=0.2 q=39.0 size=       1KiB time=00:00:00.01 bitrate= 268.8kbits/s speed=0.000852x elapsed=0:00:19.55    \nframe=    4 fps=0.2 q=42.0 size=       1KiB time=00:00:00.02 bitrate= 179.2kbits/s speed=0.00125x elapsed=0:00:20.07    \nframe=    4 fps=0.2 q=42.0 size=       1KiB time=00:00:00.02 bitrate= 179.2kbits/s speed=0.00121x elapsed=0:00:20.64    \nframe=    6 fps=0.3 q=42.0 size=       1KiB time=00:00:00.04 bitrate= 107.5kbits/s speed=0.00197x elapsed=0:00:21.17    \nframe=    7 fps=0.3 q=38.0 size=       1KiB time=00:00:00.04 bitrate= 107.5kbits/s speed=0.00192x elapsed=0:00:21.71    \nframe=    7 fps=0.3 q=38.0 size=       1KiB time=00:00:00.05 bitrate=  89.6kbits/s speed=0.00223x elapsed=0:00:22.40    \nframe=    7 fps=0.3 q=38.0 size=       1KiB time=00:00:00.05 bitrate=  89.6kbits/s speed=0.00218x elapsed=0:00:22.95    \nframe=    7 fps=0.3 q=38.0 size=       1KiB time=00:00:00.05 bitrate=  89.6kbits/s speed=0.00213x elapsed=0:00:23.51    \nframe=    8 fps=0.3 q=41.0 size=       1KiB time=00:00:00.05 bitrate=  76.8kbits/s speed=0.00242x elapsed=0:00:24.06    \nframe=    8 fps=0.3 q=41.0 size=       1KiB time=00:00:00.05 bitrate=  76.8kbits/s speed=0.00237x elapsed=0:00:24.66    \nframe=    9 fps=0.4 q=35.0 size=       1KiB time=00:00:00.06 bitrate=  67.2kbits/s speed=0.00265x elapsed=0:00:25.17    \nframe=   10 fps=0.4 q=39.0 size=       1KiB time=00:00:00.07 bitrate=  59.7kbits/s speed=0.00291x elapsed=0:00:25.77    \nframe=   10 fps=0.4 q=39.0 size=       1KiB time=00:00:00.07 bitrate=  59.7kbits/s speed=0.00285x elapsed=0:00:26.32    \nframe=   11 fps=0.4 q=38.0 size=       1KiB time=00:00:00.08 bitrate=  53.8kbits/s speed=0.0031x elapsed=0:00:26.88    \nframe=   11 fps=0.4 q=38.0 size=       1KiB time=00:00:00.08 bitrate=  53.8kbits/s speed=0.00304x elapsed=0:00:27.40    \nframe=   12 fps=0.4 q=38.0 size=       1KiB time=00:00:00.09 bitrate=  48.9kbits/s speed=0.00328x elapsed=0:00:27.92    \nframe=   14 fps=0.5 q=38.0 size=       1KiB time=00:00:00.10 bitrate=  41.4kbits/s speed=0.0038x elapsed=0:00:28.47    \nframe=   14 fps=0.5 q=38.0 size=       1KiB time=00:00:00.10 bitrate=  41.4kbits/s speed=0.00373x elapsed=0:00:29.01    \nframe=   16 fps=0.5 q=38.0 size=       1KiB time=00:00:00.12 bitrate=  35.8kbits/s speed=0.00423x elapsed=0:00:29.53    \nframe=   16 fps=0.5 q=38.0 size=       1KiB time=00:00:00.12 bitrate=  35.8kbits/s speed=0.00416x elapsed=0:00:30.08    \nframe=   17 fps=0.6 q=25.0 size=       1KiB time=00:00:00.13 bitrate=  33.6kbits/s speed=0.00435x elapsed=0:00:30.62    \nframe=   18 fps=0.6 q=37.0 size=       1KiB time=00:00:00.14 bitrate=  31.6kbits/s speed=0.00454x elapsed=0:00:31.20    \nframe=   18 fps=0.6 q=37.0 size=       1KiB time=00:00:00.14 bitrate=  31.6kbits/s speed=0.00447x elapsed=0:00:31.72    \nframe=   19 fps=0.6 q=38.0 size=       1KiB time=00:00:00.15 bitrate=  29.9kbits/s speed=0.00465x elapsed=0:00:32.22    \nframe=   19 fps=0.6 q=38.0 size=       1KiB time=00:00:00.15 bitrate=  29.9kbits/s speed=0.00458x elapsed=0:00:32.74    \nframe=   20 fps=0.6 q=37.0 size=       1KiB time=00:00:00.15 bitrate=  28.3kbits/s speed=0.00476x elapsed=0:00:33.28    \nframe=   20 fps=0.6 q=37.0 size=       1KiB time=00:00:00.15 bitrate=  28.3kbits/s speed=0.00468x elapsed=0:00:33.83    \nframe=   21 fps=0.6 q=37.0 size=       1KiB time=00:00:00.16 bitrate=  26.9kbits/s speed=0.00485x elapsed=0:00:34.35    \nframe=   21 fps=0.6 q=37.0 size=       1KiB time=00:00:00.16 bitrate=  26.9kbits/s speed=0.00477x elapsed=0:00:34.90    \nframe=   22 fps=0.6 q=37.0 size=       1KiB time=00:00:00.17 bitrate=  25.6kbits/s speed=0.00494x elapsed=0:00:35.45    \nframe=   22 fps=0.6 q=37.0 size=       1KiB time=00:00:00.17 bitrate=  25.6kbits/s speed=0.00486x elapsed=0:00:35.99    \nframe=   22 fps=0.6 q=37.0 size=       1KiB time=00:00:00.17 bitrate=  25.6kbits/s speed=0.00479x elapsed=0:00:36.52    \nframe=   23 fps=0.6 q=38.0 size=       1KiB time=00:00:00.17 bitrate=  25.6kbits/s speed=0.00472x elapsed=0:00:37.07    \nframe=   23 fps=0.6 q=38.0 size=       1KiB time=00:00:00.18 bitrate=  24.4kbits/s speed=0.00487x elapsed=0:00:37.67    \nframe=   23 fps=0.6 q=38.0 size=       1KiB time=00:00:00.18 bitrate=  24.4kbits/s speed=0.00479x elapsed=0:00:38.28    \nframe=   24 fps=0.6 q=37.0 size=       1KiB time=00:00:00.19 bitrate=  23.4kbits/s speed=0.00494x elapsed=0:00:38.83    \nframe=   25 fps=0.6 q=35.0 size=       1KiB time=00:00:00.20 bitrate=  22.4kbits/s speed=0.00508x elapsed=0:00:39.37    \nframe=   27 fps=0.7 q=38.0 size=       1KiB time=00:00:00.21 bitrate=  20.7kbits/s speed=0.00543x elapsed=0:00:39.88    \nframe=   27 fps=0.7 q=38.0 size=       1KiB time=00:00:00.21 bitrate=  20.7kbits/s speed=0.00536x elapsed=0:00:40.45    \nframe=   28 fps=0.7 q=38.0 size=       1KiB time=00:00:00.22 bitrate=  19.9kbits/s speed=0.00549x elapsed=0:00:40.98    \nframe=   29 fps=0.7 q=35.0 size=       1KiB time=00:00:00.23 bitrate=  19.2kbits/s speed=0.00561x elapsed=0:00:41.57    \nframe=   31 fps=0.7 q=38.0 size=       1KiB time=00:00:00.25 bitrate=  17.9kbits/s speed=0.00593x elapsed=0:00:42.18    \nframe=   31 fps=0.7 q=38.0 size=       1KiB time=00:00:00.25 bitrate=  17.9kbits/s speed=0.00585x elapsed=0:00:42.72    \nframe=   33 fps=0.8 q=25.0 size=       1KiB time=00:00:00.26 bitrate=  16.8kbits/s speed=0.00615x elapsed=0:00:43.33    \nframe=   34 fps=0.8 q=40.0 size=       1KiB time=00:00:00.26 bitrate=  16.8kbits/s speed=0.00608x elapsed=0:00:43.89    \nframe=   34 fps=0.8 q=40.0 size=       1KiB time=00:00:00.27 bitrate=  16.3kbits/s speed=0.00619x elapsed=0:00:44.41    \nframe=   35 fps=0.8 q=38.0 size=       1KiB time=00:00:00.28 bitrate=  15.8kbits/s speed=0.00631x elapsed=0:00:44.93    \nframe=   35 fps=0.8 q=38.0 size=       1KiB time=00:00:00.28 bitrate=  15.8kbits/s speed=0.00622x elapsed=0:00:45.52    \nframe=   35 fps=0.8 q=38.0 size=       1KiB time=00:00:00.28 bitrate=  15.8kbits/s speed=0.00615x elapsed=0:00:46.04    \nframe=   36 fps=0.8 q=40.0 size=       1KiB time=00:00:00.29 bitrate=  15.4kbits/s speed=0.00626x elapsed=0:00:46.58    \nframe=   37 fps=0.8 q=36.0 size=       1KiB time=00:00:00.30 bitrate=  14.9kbits/s speed=0.00637x elapsed=0:00:47.12    \nframe=   38 fps=0.8 q=39.0 size=       1KiB time=00:00:00.30 bitrate=  14.9kbits/s speed=0.00629x elapsed=0:00:47.66    \nframe=   38 fps=0.8 q=39.0 size=       1KiB time=00:00:00.30 bitrate=  14.5kbits/s speed=0.0064x elapsed=0:00:48.19    \nframe=   38 fps=0.8 q=39.0 size=       1KiB time=00:00:00.30 bitrate=  14.5kbits/s speed=0.00633x elapsed=0:00:48.70    \nframe=   38 fps=0.8 q=39.0 size=       1KiB time=00:00:00.30 bitrate=  14.5kbits/s speed=0.00626x elapsed=0:00:49.23    \nframe=   39 fps=0.8 q=36.0 size=       1KiB time=00:00:00.31 bitrate=  14.1kbits/s speed=0.00636x elapsed=0:00:49.75    \nframe=   39 fps=0.8 q=36.0 size=       1KiB time=00:00:00.31 bitrate=  14.1kbits/s speed=0.00629x elapsed=0:00:50.33    \nframe=   40 fps=0.8 q=39.0 size=       1KiB time=00:00:00.32 bitrate=  13.8kbits/s speed=0.00638x elapsed=0:00:50.91    \nframe=   42 fps=0.8 q=41.0 size=       1KiB time=00:00:00.34 bitrate=  13.1kbits/s speed=0.00664x elapsed=0:00:51.46    \nframe=   43 fps=0.8 q=39.0 size=       1KiB time=00:00:00.35 bitrate=  12.8kbits/s speed=0.00673x elapsed=0:00:52.00    \nframe=   43 fps=0.8 q=39.0 size=       1KiB time=00:00:00.35 bitrate=  12.8kbits/s speed=0.00666x elapsed=0:00:52.54    \nframe=   43 fps=0.8 q=39.0 size=       1KiB time=00:00:00.35 bitrate=  12.8kbits/s speed=0.00659x elapsed=0:00:53.09    \nframe=   44 fps=0.8 q=39.0 size=       1KiB time=00:00:00.35 bitrate=  12.5kbits/s speed=0.00668x elapsed=0:00:53.60    \nframe=   45 fps=0.8 q=35.0 size=       1KiB time=00:00:00.36 bitrate=  12.2kbits/s speed=0.00677x elapsed=0:00:54.17    \nframe=   47 fps=0.9 q=39.0 size=       1KiB time=00:00:00.38 bitrate=  11.7kbits/s speed=0.00701x elapsed=0:00:54.69    \nframe=   48 fps=0.9 q=41.0 size=       1KiB time=00:00:00.39 bitrate=  11.4kbits/s speed=0.00709x elapsed=0:00:55.24    \nframe=   48 fps=0.9 q=41.0 size=       1KiB time=00:00:00.39 bitrate=  11.4kbits/s speed=0.00702x elapsed=0:00:55.78    \nframe=   50 fps=0.9 q=42.0 size=       1KiB time=00:00:00.40 bitrate=  11.0kbits/s speed=0.00725x elapsed=0:00:56.32    \nframe=   51 fps=0.9 q=41.0 size=       1KiB time=00:00:00.41 bitrate=  10.8kbits/s speed=0.00733x elapsed=0:00:56.84    \nframe=   52 fps=0.9 q=42.0 size=       1KiB time=00:00:00.41 bitrate=  10.8kbits/s speed=0.00726x elapsed=0:00:57.38    \nframe=   53 fps=0.9 q=39.0 size=       1KiB time=00:00:00.43 bitrate=  10.3kbits/s speed=0.00748x elapsed=0:00:57.95    \nframe=   54 fps=0.9 q=42.0 size=       1KiB time=00:00:00.44 bitrate=  10.1kbits/s speed=0.00755x elapsed=0:00:58.46    \nframe=   54 fps=0.9 q=42.0 size=       1KiB time=00:00:00.44 bitrate=  10.1kbits/s speed=0.00749x elapsed=0:00:58.99    \nframe=   54 fps=0.9 q=42.0 size=       1KiB time=00:00:00.44 bitrate=  10.1kbits/s speed=0.00742x elapsed=0:00:59.53    \nframe=   55 fps=0.9 q=41.0 size=       1KiB time=00:00:00.45 bitrate=  10.0kbits/s speed=0.00749x elapsed=0:01:00.06    \nframe=   55 fps=0.9 q=41.0 size=       1KiB time=00:00:00.45 bitrate=  10.0kbits/s speed=0.00743x elapsed=0:01:00.58    \nframe=   56 fps=0.9 q=42.0 size=       1KiB time=00:00:00.45 bitrate=   9.8kbits/s speed=0.00748x elapsed=0:01:01.23    \nframe=   57 fps=0.9 q=35.0 size=       1KiB time=00:00:00.46 bitrate=   9.6kbits/s speed=0.00756x elapsed=0:01:01.74    \nframe=   57 fps=0.9 q=35.0 size=       1KiB time=00:00:00.46 bitrate=   9.6kbits/s speed=0.00749x elapsed=0:01:02.26    \nframe=   58 fps=0.9 q=40.0 size=       1KiB time=00:00:00.47 bitrate=   9.4kbits/s speed=0.00757x elapsed=0:01:02.78    \nframe=   59 fps=0.9 q=39.0 size=       1KiB time=00:00:00.48 bitrate=   9.3kbits/s speed=0.00764x elapsed=0:01:03.29    \nframe=   61 fps=1.0 q=35.0 size=       1KiB time=00:00:00.50 bitrate=   9.0kbits/s speed=0.00784x elapsed=0:01:03.81    \nframe=   62 fps=1.0 q=40.0 size=       1KiB time=00:00:00.50 bitrate=   8.8kbits/s speed=0.0079x elapsed=0:01:04.32    \nframe=   64 fps=1.0 q=36.0 size=       1KiB time=00:00:00.52 bitrate=   8.5kbits/s speed=0.0081x elapsed=0:01:04.83    \nframe=   64 fps=1.0 q=36.0 size=       1KiB time=00:00:00.52 bitrate=   8.5kbits/s speed=0.00803x elapsed=0:01:05.36    \nframe=   65 fps=1.0 q=23.0 size=       1KiB time=00:00:00.53 bitrate=   8.4kbits/s speed=0.0081x elapsed=0:01:05.87    \nframe=   66 fps=1.0 q=42.0 size=       1KiB time=00:00:00.54 bitrate=   8.3kbits/s speed=0.00816x elapsed=0:01:06.39    \nframe=   67 fps=1.0 q=40.0 size=       1KiB time=00:00:00.55 bitrate=   8.1kbits/s speed=0.00822x elapsed=0:01:06.90    \nframe=   67 fps=1.0 q=40.0 size=       1KiB time=00:00:00.55 bitrate=   8.1kbits/s speed=0.00816x elapsed=0:01:07.42    \nframe=   68 fps=1.0 q=42.0 size=       1KiB time=00:00:00.55 bitrate=   8.0kbits/s speed=0.00822x elapsed=0:01:07.94    \nframe=   69 fps=1.0 q=38.0 size=       1KiB time=00:00:00.56 bitrate=   7.9kbits/s speed=0.00828x elapsed=0:01:08.46    \nframe=   70 fps=1.0 q=42.0 size=       1KiB time=00:00:00.57 bitrate=   7.8kbits/s speed=0.00833x elapsed=0:01:08.98    \nframe=   70 fps=1.0 q=42.0 size=       1KiB time=00:00:00.57 bitrate=   7.8kbits/s speed=0.00827x elapsed=0:01:09.50    \nframe=   71 fps=1.0 q=40.0 size=       1KiB time=00:00:00.58 bitrate=   7.7kbits/s speed=0.00833x elapsed=0:01:10.01    \nframe=   71 fps=1.0 q=40.0 size=       1KiB time=00:00:00.58 bitrate=   7.7kbits/s speed=0.00827x elapsed=0:01:10.53    \nframe=   72 fps=1.0 q=42.0 size=       1KiB time=00:00:00.59 bitrate=   7.6kbits/s speed=0.00833x elapsed=0:01:11.04    \nframe=   74 fps=1.0 q=42.0 size=       1KiB time=00:00:00.60 bitrate=   7.4kbits/s speed=0.0085x elapsed=0:01:11.56    \nframe=   75 fps=1.0 q=38.0 size=       1KiB time=00:00:00.61 bitrate=   7.3kbits/s speed=0.00856x elapsed=0:01:12.07    \nframe=   75 fps=1.0 q=38.0 size=       1KiB time=00:00:00.61 bitrate=   7.3kbits/s speed=0.00849x elapsed=0:01:12.59    \nframe=   76 fps=1.0 q=42.0 size=       1KiB time=00:00:00.62 bitrate=   7.2kbits/s speed=0.00855x elapsed=0:01:13.11    \nframe=   77 fps=1.0 q=35.0 size=       1KiB time=00:00:00.63 bitrate=   7.1kbits/s speed=0.0086x elapsed=0:01:13.62    \nframe=   78 fps=1.1 q=42.0 size=       1KiB time=00:00:00.64 bitrate=   7.0kbits/s speed=0.00865x elapsed=0:01:14.14    \nframe=   79 fps=1.1 q=38.0 size=       1KiB time=00:00:00.65 bitrate=   6.9kbits/s speed=0.00871x elapsed=0:01:14.65    \nframe=   80 fps=1.1 q=42.0 size=       1KiB time=00:00:00.65 bitrate=   6.8kbits/s speed=0.00876x elapsed=0:01:15.18    \nframe=   81 fps=1.1 q=25.0 size=       1KiB time=00:00:00.66 bitrate=   6.7kbits/s speed=0.00881x elapsed=0:01:15.68    \nframe=   82 fps=1.1 q=42.0 size=       1KiB time=00:00:00.67 bitrate=   6.6kbits/s speed=0.00886x elapsed=0:01:16.20    \nframe=   83 fps=1.1 q=40.0 size=       1KiB time=00:00:00.68 bitrate=   6.6kbits/s speed=0.00891x elapsed=0:01:16.71    \nframe=   84 fps=1.1 q=42.0 size=       1KiB time=00:00:00.69 bitrate=   6.5kbits/s speed=0.00895x elapsed=0:01:17.23    \nframe=   85 fps=1.1 q=38.0 size=       1KiB time=00:00:00.70 bitrate=   6.4kbits/s speed=0.009x elapsed=0:01:17.74    \nframe=   86 fps=1.1 q=42.0 size=       1KiB time=00:00:00.70 bitrate=   6.3kbits/s speed=0.00905x elapsed=0:01:18.27    \nframe=   86 fps=1.1 q=42.0 size=       1KiB time=00:00:00.70 bitrate=   6.3kbits/s speed=0.00899x elapsed=0:01:18.78    \nframe=   87 fps=1.1 q=37.0 size=       1KiB time=00:00:00.71 bitrate=   6.3kbits/s speed=0.00904x elapsed=0:01:19.29    \nframe=   88 fps=1.1 q=42.0 size=       1KiB time=00:00:00.72 bitrate=   6.2kbits/s speed=0.00908x elapsed=0:01:19.81    \nframe=   90 fps=1.1 q=42.0 size=       1KiB time=00:00:00.74 bitrate=   6.0kbits/s speed=0.00923x elapsed=0:01:20.32    \nframe=   91 fps=1.1 q=39.0 size=       1KiB time=00:00:00.75 bitrate=   6.0kbits/s speed=0.00928x elapsed=0:01:20.85    \nframe=   92 fps=1.1 q=43.0 size=       1KiB time=00:00:00.75 bitrate=   5.9kbits/s speed=0.00932x elapsed=0:01:21.36    \nframe=   93 fps=1.1 q=36.0 size=       1KiB time=00:00:00.76 bitrate=   5.8kbits/s speed=0.00936x elapsed=0:01:21.86    \nframe=   95 fps=1.2 q=39.0 size=       1KiB time=00:00:00.78 bitrate=   5.7kbits/s speed=0.00951x elapsed=0:01:22.39    \nframe=   97 fps=1.2 q=25.0 size=       1KiB time=00:00:00.80 bitrate=   5.6kbits/s speed=0.00965x elapsed=0:01:22.90    \nframe=   99 fps=1.2 q=41.0 size=       1KiB time=00:00:00.81 bitrate=   5.5kbits/s speed=0.00979x elapsed=0:01:23.42    \nframe=   99 fps=1.2 q=41.0 size=       1KiB time=00:00:00.81 bitrate=   5.5kbits/s speed=0.00973x elapsed=0:01:23.94    \nframe=  100 fps=1.2 q=43.0 size=       1KiB time=00:00:00.82 bitrate=   5.4kbits/s speed=0.00977x elapsed=0:01:24.45    \nframe=  102 fps=1.2 q=43.0 size=       1KiB time=00:00:00.84 bitrate=   5.3kbits/s speed=0.00991x elapsed=0:01:24.97    \nframe=  102 fps=1.2 q=43.0 size=       1KiB time=00:00:00.84 bitrate=   5.3kbits/s speed=0.00985x elapsed=0:01:25.48    \nframe=  103 fps=1.2 q=38.0 size=       1KiB time=00:00:00.85 bitrate=   5.3kbits/s speed=0.00988x elapsed=0:01:25.99    \nframe=  103 fps=1.2 q=38.0 size=       1KiB time=00:00:00.85 bitrate=   5.3kbits/s speed=0.00982x elapsed=0:01:26.51    \nframe=  103 fps=1.2 q=38.0 size=       1KiB time=00:00:00.85 bitrate=   5.3kbits/s speed=0.00977x elapsed=0:01:27.03    \nframe=  107 fps=1.2 q=40.0 size=       1KiB time=00:00:00.88 bitrate=   5.1kbits/s speed=0.0101x elapsed=0:01:27.54    \nframe=  107 fps=1.2 q=40.0 size=       1KiB time=00:00:00.88 bitrate=   5.1kbits/s speed=0.01x elapsed=0:01:28.09    \nframe=  109 fps=1.2 q=37.0 size=       1KiB time=00:00:00.90 bitrate=   5.0kbits/s speed=0.0101x elapsed=0:01:28.73    \nframe=  112 fps=1.3 q=44.0 size=       1KiB time=00:00:00.92 bitrate=   4.8kbits/s speed=0.0103x elapsed=0:01:29.43    \nframe=  113 fps=1.3 q=25.0 size=       1KiB time=00:00:00.93 bitrate=   4.8kbits/s speed=0.0104x elapsed=0:01:30.10    \nframe=  115 fps=1.3 q=42.0 size=       1KiB time=00:00:00.94 bitrate=   4.8kbits/s speed=0.0104x elapsed=0:01:30.70    \nframe=  115 fps=1.3 q=42.0 size=       1KiB time=00:00:00.95 bitrate=   4.7kbits/s speed=0.0104x elapsed=0:01:31.34    \nframe=  117 fps=1.3 q=40.0 size=       1KiB time=00:00:00.96 bitrate=   4.6kbits/s speed=0.0105x elapsed=0:01:31.89    \nframe=  118 fps=1.3 q=44.0 size=       1KiB time=00:00:00.97 bitrate=   4.6kbits/s speed=0.0106x elapsed=0:01:32.41    \nframe=  119 fps=1.3 q=42.0 size=       1KiB time=00:00:00.98 bitrate=   4.6kbits/s speed=0.0106x elapsed=0:01:32.97    \nframe=  119 fps=1.3 q=42.0 size=       1KiB time=00:00:00.98 bitrate=   4.6kbits/s speed=0.0105x elapsed=0:01:33.59    \nframe=  121 fps=1.3 q=36.0 size=       1KiB time=00:00:01.00 bitrate=   4.5kbits/s speed=0.0106x elapsed=0:01:34.20    \nframe=  123 fps=1.3 q=41.0 size=       1KiB time=00:00:01.01 bitrate=   4.4kbits/s speed=0.0107x elapsed=0:01:34.84    \nframe=  123 fps=1.3 q=41.0 size=       1KiB time=00:00:01.01 bitrate=   4.4kbits/s speed=0.0107x elapsed=0:01:35.38    \nframe=  125 fps=1.3 q=38.0 size=       1KiB time=00:00:01.03 bitrate=   4.3kbits/s speed=0.0108x elapsed=0:01:35.93    \nframe=  128 fps=1.3 q=45.0 size=       1KiB time=00:00:01.05 bitrate=   4.2kbits/s speed=0.011x elapsed=0:01:36.64    \nframe=  129 fps=1.3 q=26.0 size=       1KiB time=00:00:01.06 bitrate=   4.2kbits/s speed=0.011x elapsed=0:01:37.26    \nframe=  131 fps=1.3 q=43.0 size=       1KiB time=00:00:01.08 bitrate=   4.1kbits/s speed=0.0111x elapsed=0:01:37.82    \nframe=  133 fps=1.4 q=41.0 size=       1KiB time=00:00:01.10 bitrate=   4.1kbits/s speed=0.0112x elapsed=0:01:38.34    \nframe=  134 fps=1.4 q=45.0 size=       1KiB time=00:00:01.10 bitrate=   4.0kbits/s speed=0.0112x elapsed=0:01:38.94    \nframe=  135 fps=1.4 q=43.0 size=       1KiB time=00:00:01.11 bitrate=   4.0kbits/s speed=0.0112x elapsed=0:01:39.69    \nframe=  136 fps=1.4 q=45.0 size=       1KiB time=00:00:01.12 bitrate=   4.0kbits/s speed=0.0112x elapsed=0:01:40.37    \nframe=  138 fps=1.4 q=45.0 size=       1KiB time=00:00:01.14 bitrate=   3.9kbits/s speed=0.0113x elapsed=0:01:41.06    \nframe=  140 fps=1.4 q=45.0 size=       1KiB time=00:00:01.15 bitrate=   3.9kbits/s speed=0.0114x elapsed=0:01:41.70    \nframe=  144 fps=1.4 q=45.0 size=       1KiB time=00:00:01.19 bitrate=   3.8kbits/s speed=0.0117x elapsed=0:01:42.25    \nframe=  145 fps=1.4 q=27.0 size=       1KiB time=00:00:01.20 bitrate=   3.7kbits/s speed=0.0117x elapsed=0:01:42.82    \nframe=  146 fps=1.4 q=45.0 size=       1KiB time=00:00:01.20 bitrate=   3.7kbits/s speed=0.0117x elapsed=0:01:43.47    \nframe=  147 fps=1.4 q=43.0 size=       1KiB time=00:00:01.21 bitrate=   3.7kbits/s speed=0.0117x elapsed=0:01:44.12    \nframe=  149 fps=1.4 q=41.0 size=       1KiB time=00:00:01.23 bitrate=   3.6kbits/s speed=0.0118x elapsed=0:01:44.71    \nframe=  150 fps=1.4 q=45.0 size=       1KiB time=00:00:01.24 bitrate=   3.6kbits/s speed=0.0118x elapsed=0:01:45.31    \nframe=  151 fps=1.4 q=43.0 size=       1KiB time=00:00:01.25 bitrate=   3.6kbits/s speed=0.0118x elapsed=0:01:45.90    \nframe=  153 fps=1.4 q=37.0 size=       1KiB time=00:00:01.25 bitrate=   3.6kbits/s speed=0.0118x elapsed=0:01:46.52    \nframe=  155 fps=1.4 q=42.0 size=       1KiB time=00:00:01.27 bitrate=   3.5kbits/s speed=0.0119x elapsed=0:01:47.08    \nframe=  156 fps=1.4 q=45.0 size=       1KiB time=00:00:01.29 bitrate=   3.5kbits/s speed=0.012x elapsed=0:01:47.69    \nframe=  160 fps=1.5 q=45.0 size=       1KiB time=00:00:01.32 bitrate=   3.4kbits/s speed=0.0122x elapsed=0:01:48.35    \nframe=  160 fps=1.5 q=45.0 size=       1KiB time=00:00:01.32 bitrate=   3.4kbits/s speed=0.0122x elapsed=0:01:48.90    \nframe=  162 fps=1.5 q=45.0 size=       1KiB time=00:00:01.34 bitrate=   3.3kbits/s speed=0.0123x elapsed=0:01:49.46    \nframe=  164 fps=1.5 q=45.0 size=       1KiB time=00:00:01.35 bitrate=   3.3kbits/s speed=0.0123x elapsed=0:01:50.02    \nframe=  166 fps=1.5 q=45.0 size=       1KiB time=00:00:01.37 bitrate=   3.3kbits/s speed=0.0124x elapsed=0:01:50.53    \nframe=  167 fps=1.5 q=43.0 size=       1KiB time=00:00:01.38 bitrate=   3.2kbits/s speed=0.0125x elapsed=0:01:51.10    \nframe=  167 fps=1.5 q=43.0 size=       1KiB time=00:00:01.38 bitrate=   3.2kbits/s speed=0.0124x elapsed=0:01:51.78    \nframe=  170 fps=1.5 q=45.0 size=       1KiB time=00:00:01.40 bitrate=   3.2kbits/s speed=0.0125x elapsed=0:01:52.34    \nframe=  172 fps=1.5 q=46.0 size=       1KiB time=00:00:01.42 bitrate=   3.1kbits/s speed=0.0126x elapsed=0:01:52.97    \nframe=  174 fps=1.5 q=46.0 size=       1KiB time=00:00:01.44 bitrate=   3.1kbits/s speed=0.0127x elapsed=0:01:53.52    \nframe=  177 fps=1.6 q=28.0 size=       1KiB time=00:00:01.46 bitrate=   3.1kbits/s speed=0.0129x elapsed=0:01:54.06    \nframe=  179 fps=1.6 q=44.0 size=       1KiB time=00:00:01.48 bitrate=   3.0kbits/s speed=0.0129x elapsed=0:01:54.62    \nframe=  180 fps=1.6 q=46.0 size=       1KiB time=00:00:01.49 bitrate=   3.0kbits/s speed=0.0129x elapsed=0:01:55.19    \nframe=  182 fps=1.6 q=46.0 size=       1KiB time=00:00:01.50 bitrate=   3.0kbits/s speed=0.013x elapsed=0:01:55.79    \nframe=  183 fps=1.6 q=44.0 size=       1KiB time=00:00:01.51 bitrate=   3.0kbits/s speed=0.013x elapsed=0:01:56.37    \nframe=  185 fps=1.6 q=38.0 size=       1KiB time=00:00:01.53 bitrate=   2.9kbits/s speed=0.0131x elapsed=0:01:56.96    \nframe=  187 fps=1.6 q=42.0 size=       1KiB time=00:00:01.55 bitrate=   2.9kbits/s speed=0.0132x elapsed=0:01:57.51    \nframe=  188 fps=1.6 q=46.0 size=       1KiB time=00:00:01.55 bitrate=   2.9kbits/s speed=0.0132x elapsed=0:01:58.14    \nframe=  191 fps=1.6 q=42.0 size=       1KiB time=00:00:01.58 bitrate=   2.8kbits/s speed=0.0133x elapsed=0:01:58.79    \nframe=  192 fps=1.6 q=46.0 size=       1KiB time=00:00:01.59 bitrate=   2.8kbits/s speed=0.0133x elapsed=0:01:59.35    \nframe=  195 fps=1.6 q=44.0 size=       1KiB time=00:00:01.61 bitrate=   2.8kbits/s speed=0.0135x elapsed=0:01:59.86    \nframe=  196 fps=1.6 q=46.0 size=       1KiB time=00:00:01.62 bitrate=   2.8kbits/s speed=0.0135x elapsed=0:02:00.38    \nframe=  198 fps=1.6 q=46.0 size=       1KiB time=00:00:01.64 bitrate=   2.7kbits/s speed=0.0136x elapsed=0:02:00.93    \nframe=  199 fps=1.6 q=44.0 size=       1KiB time=00:00:01.65 bitrate=   2.7kbits/s speed=0.0136x elapsed=0:02:01.52    \nframe=  199 fps=1.6 q=44.0 size=       1KiB time=00:00:01.65 bitrate=   2.7kbits/s speed=0.0135x elapsed=0:02:02.12    \nframe=  202 fps=1.6 q=46.0 size=       1KiB time=00:00:01.67 bitrate=   2.7kbits/s speed=0.0136x elapsed=0:02:02.73    \nframe=  203 fps=1.6 q=43.0 size=       1KiB time=00:00:01.68 bitrate=   2.7kbits/s speed=0.0136x elapsed=0:02:03.35    \nframe=  208 fps=1.7 q=46.0 size=       1KiB time=00:00:01.71 bitrate=   2.6kbits/s speed=0.0139x elapsed=0:02:03.85    \nframe=  209 fps=1.7 q=29.0 size=       1KiB time=00:00:01.73 bitrate=   2.6kbits/s speed=0.0139x elapsed=0:02:04.41    \nframe=  210 fps=1.7 q=46.0 size=       1KiB time=00:00:01.74 bitrate=   2.6kbits/s speed=0.0139x elapsed=0:02:04.98    \nframe=  212 fps=1.7 q=46.0 size=       1KiB time=00:00:01.75 bitrate=   2.5kbits/s speed=0.014x elapsed=0:02:05.51    \nframe=  214 fps=1.7 q=46.0 size=       1KiB time=00:00:01.77 bitrate=   2.5kbits/s speed=0.0141x elapsed=0:02:06.06    \nframe=  215 fps=1.7 q=44.0 size=       1KiB time=00:00:01.78 bitrate=   2.5kbits/s speed=0.0141x elapsed=0:02:06.60    \nframe=  218 fps=1.7 q=47.0 size=       1KiB time=00:00:01.80 bitrate=   2.5kbits/s speed=0.0142x elapsed=0:02:07.17    \nframe=  219 fps=1.7 q=43.0 size=       1KiB time=00:00:01.81 bitrate=   2.5kbits/s speed=0.0142x elapsed=0:02:07.70    \nframe=  222 fps=1.7 q=47.0 size=       1KiB time=00:00:01.84 bitrate=   2.4kbits/s speed=0.0144x elapsed=0:02:08.32    \nframe=  224 fps=1.7 q=47.0 size=       1KiB time=00:00:01.85 bitrate=   2.4kbits/s speed=0.0144x elapsed=0:02:08.92    \nframe=  227 fps=1.8 q=44.0 size=       1KiB time=00:00:01.88 bitrate=   2.4kbits/s speed=0.0145x elapsed=0:02:09.51    \nframe=  228 fps=1.8 q=47.0 size=       1KiB time=00:00:01.89 bitrate=   2.4kbits/s speed=0.0145x elapsed=0:02:10.03    \nframe=  230 fps=1.8 q=47.0 size=       1KiB time=00:00:01.90 bitrate=   2.3kbits/s speed=0.0146x elapsed=0:02:10.56    \nframe=  231 fps=1.8 q=44.0 size=       1KiB time=00:00:01.91 bitrate=   2.3kbits/s speed=0.0146x elapsed=0:02:11.10    \nframe=  233 fps=1.8 q=40.0 size=       1KiB time=00:00:01.93 bitrate=   2.3kbits/s speed=0.0147x elapsed=0:02:11.79    \nframe=  235 fps=1.8 q=43.0 size=       1KiB time=00:00:01.95 bitrate=   2.3kbits/s speed=0.0147x elapsed=0:02:12.44    \nframe=  238 fps=1.8 q=47.0 size=       1KiB time=00:00:01.97 bitrate=   2.3kbits/s speed=0.0148x elapsed=0:02:13.04    \nframe=  240 fps=1.8 q=47.0 size=       1KiB time=00:00:01.99 bitrate=   2.2kbits/s speed=0.0149x elapsed=0:02:13.55    \nframe=  243 fps=1.8 q=44.0 size=       1KiB time=00:00:02.01 bitrate=   2.2kbits/s speed=0.015x elapsed=0:02:14.09    \nframe=  246 fps=1.8 q=47.0 size=       1KiB time=00:00:02.04 bitrate=   2.2kbits/s speed=0.0152x elapsed=0:02:14.62    \nframe=  247 fps=1.8 q=44.0 size=       1KiB time=00:00:02.05 bitrate=   2.2kbits/s speed=0.0152x elapsed=0:02:15.13    \nframe=  250 fps=1.8 q=47.0 size=       1KiB time=00:00:02.07 bitrate=   2.2kbits/s speed=0.0153x elapsed=0:02:15.68    \nframe=  252 fps=1.8 q=47.0 size=       1KiB time=00:00:02.09 bitrate=   2.1kbits/s speed=0.0154x elapsed=0:02:16.22    \nframe=  256 fps=1.9 q=47.0 size=       1KiB time=00:00:02.12 bitrate=   2.1kbits/s speed=0.0155x elapsed=0:02:16.79    \nframe=  259 fps=1.9 q=44.0 size=       1KiB time=00:00:02.15 bitrate=   2.1kbits/s speed=0.0157x elapsed=0:02:17.33    \nframe=  262 fps=1.9 q=47.0 size=       1KiB time=00:00:02.17 bitrate=   2.1kbits/s speed=0.0158x elapsed=0:02:17.85    \nframe=  263 fps=1.9 q=44.0 size=       1KiB time=00:00:02.18 bitrate=   2.1kbits/s speed=0.0158x elapsed=0:02:18.41    \nframe=  266 fps=1.9 q=47.0 size=       1KiB time=00:00:02.20 bitrate=   2.0kbits/s speed=0.0159x elapsed=0:02:19.03    \nframe=  267 fps=1.9 q=43.0 size=       1KiB time=00:00:02.21 bitrate=   2.0kbits/s speed=0.0159x elapsed=0:02:19.60    \nframe=  272 fps=1.9 q=47.0 size=       1KiB time=00:00:02.25 bitrate=   2.0kbits/s speed=0.0161x elapsed=0:02:20.12    \nframe=  275 fps=2.0 q=45.0 size=       1KiB time=00:00:02.28 bitrate=   2.0kbits/s speed=0.0162x elapsed=0:02:20.64    \nframe=  278 fps=2.0 q=47.0 size=       1KiB time=00:00:02.30 bitrate=   1.9kbits/s speed=0.0164x elapsed=0:02:21.16    \nframe=  279 fps=2.0 q=45.0 size=       1KiB time=00:00:02.31 bitrate=   1.9kbits/s speed=0.0163x elapsed=0:02:21.71    \nframe=  283 fps=2.0 q=44.0 size=       1KiB time=00:00:02.35 bitrate=   1.9kbits/s speed=0.0165x elapsed=0:02:22.26    \nframe=  285 fps=2.0 q=41.0 size=       1KiB time=00:00:02.36 bitrate=   1.9kbits/s speed=0.0166x elapsed=0:02:22.85    \nframe=  288 fps=2.0 q=47.0 size=       1KiB time=00:00:02.39 bitrate=   1.9kbits/s speed=0.0167x elapsed=0:02:23.40    \nframe=  291 fps=2.0 q=45.0 size=       1KiB time=00:00:02.41 bitrate=   1.9kbits/s speed=0.0168x elapsed=0:02:23.92    \nframe=  295 fps=2.0 q=45.0 size=       1KiB time=00:00:02.45 bitrate=   1.8kbits/s speed=0.017x elapsed=0:02:24.43    \nframe=  297 fps=2.0 q=40.0 size=       1KiB time=00:00:02.46 bitrate=   1.8kbits/s speed=0.017x elapsed=0:02:24.96    \nframe=  299 fps=2.1 q=44.0 size=       1KiB time=00:00:02.48 bitrate=   1.8kbits/s speed=0.0171x elapsed=0:02:25.53    \nframe=  301 fps=2.1 q=41.0 size=       1KiB time=00:00:02.50 bitrate=   1.8kbits/s speed=0.0171x elapsed=0:02:26.09    \nframe=  306 fps=2.1 q=47.0 size=       1KiB time=00:00:02.54 bitrate=   1.8kbits/s speed=0.0173x elapsed=0:02:26.61    \nframe=  309 fps=2.1 q=43.0 size=       1KiB time=00:00:02.56 bitrate=   1.7kbits/s speed=0.0174x elapsed=0:02:27.13    \nframe=  310 fps=2.1 q=47.0 size=       1KiB time=00:00:02.57 bitrate=   1.7kbits/s speed=0.0174x elapsed=0:02:27.66    \nframe=  311 fps=2.1 q=45.0 size=       1KiB time=00:00:02.58 bitrate=   1.7kbits/s speed=0.0174x elapsed=0:02:28.19    \nframe=  315 fps=2.1 q=44.0 size=       1KiB time=00:00:02.61 bitrate=   1.7kbits/s speed=0.0176x elapsed=0:02:28.72    \nframe=  319 fps=2.1 q=43.0 size=       1KiB time=00:00:02.65 bitrate=   1.7kbits/s speed=0.0178x elapsed=0:02:29.22    \nframe=  322 fps=2.2 q=47.0 size=       1KiB time=00:00:02.67 bitrate=   1.7kbits/s speed=0.0179x elapsed=0:02:29.75    \nframe=  325 fps=2.2 q=43.0 size=       1KiB time=00:00:02.70 bitrate=   1.7kbits/s speed=0.018x elapsed=0:02:30.27    \nframe=  327 fps=2.2 q=45.0 size=       1KiB time=00:00:02.71 bitrate=   1.6kbits/s speed=0.018x elapsed=0:02:30.78    \nframe=  330 fps=2.2 q=47.0 size=       1KiB time=00:00:02.74 bitrate=   1.6kbits/s speed=0.0181x elapsed=0:02:31.32    \nframe=  331 fps=2.2 q=44.0 size=       1KiB time=00:00:02.75 bitrate=   1.6kbits/s speed=0.0181x elapsed=0:02:31.85    \nframe=  336 fps=2.2 q=48.0 size=       1KiB time=00:00:02.79 bitrate=   1.6kbits/s speed=0.0183x elapsed=0:02:32.40    \nframe=  339 fps=2.2 q=45.0 size=       1KiB time=00:00:02.81 bitrate=   1.6kbits/s speed=0.0184x elapsed=0:02:32.92    \nframe=  342 fps=2.2 q=48.0 size=       1KiB time=00:00:02.84 bitrate=   1.6kbits/s speed=0.0185x elapsed=0:02:33.43    \nframe=  343 fps=2.2 q=45.0 size=       1KiB time=00:00:02.85 bitrate=   1.6kbits/s speed=0.0185x elapsed=0:02:33.98    \nframe=  347 fps=2.2 q=44.0 size=       1KiB time=00:00:02.88 bitrate=   1.6kbits/s speed=0.0187x elapsed=0:02:34.59    \nframe=  350 fps=2.3 q=48.0 size=       1KiB time=00:00:02.90 bitrate=   1.5kbits/s speed=0.0187x elapsed=0:02:35.15    \nframe=  353 fps=2.3 q=33.0 size=       1KiB time=00:00:02.93 bitrate=   1.5kbits/s speed=0.0188x elapsed=0:02:35.66    \nframe=  357 fps=2.3 q=44.0 size=       1KiB time=00:00:02.96 bitrate=   1.5kbits/s speed=0.019x elapsed=0:02:36.19    \nframe=  359 fps=2.3 q=46.0 size=       1KiB time=00:00:02.98 bitrate=   1.5kbits/s speed=0.019x elapsed=0:02:36.71    \nframe=  363 fps=2.3 q=45.0 size=       1KiB time=00:00:03.01 bitrate=   1.5kbits/s speed=0.0192x elapsed=0:02:37.24    \nframe=  368 fps=2.3 q=48.0 size=       1KiB time=00:00:03.05 bitrate=   1.5kbits/s speed=0.0194x elapsed=0:02:37.77    \nframe=  371 fps=2.3 q=45.0 size=       1KiB time=00:00:03.08 bitrate=   1.5kbits/s speed=0.0195x elapsed=0:02:38.28    \nframe=  374 fps=2.4 q=48.0 size=       1KiB time=00:00:03.10 bitrate=   1.4kbits/s speed=0.0196x elapsed=0:02:38.79    \nframe=  377 fps=2.4 q=41.0 size=       1KiB time=00:00:03.13 bitrate=   1.4kbits/s speed=0.0197x elapsed=0:02:39.31    \nframe=  380 fps=2.4 q=49.0 size=       1KiB time=00:00:03.15 bitrate=   1.4kbits/s speed=0.0198x elapsed=0:02:39.82    \nframe=  386 fps=2.4 q=49.0 size=       1KiB time=00:00:03.20 bitrate=   1.4kbits/s speed=0.02x elapsed=0:02:40.34    \nframe=  390 fps=2.4 q=49.0 size=       1KiB time=00:00:03.24 bitrate=   1.4kbits/s speed=0.0202x elapsed=0:02:40.86    \nframe=  391 fps=2.4 q=46.0 size=       1KiB time=00:00:03.25 bitrate=   1.4kbits/s speed=0.0201x elapsed=0:02:41.37    \nframe=  395 fps=2.4 q=45.0 size=       1KiB time=00:00:03.28 bitrate=   1.4kbits/s speed=0.0203x elapsed=0:02:41.89    \nframe=  400 fps=2.5 q=49.0 size=       1KiB time=00:00:03.32 bitrate=   1.3kbits/s speed=0.0205x elapsed=0:02:42.40    \nframe=  405 fps=2.5 q=45.0 size=       1KiB time=00:00:03.36 bitrate=   1.3kbits/s speed=0.0207x elapsed=0:02:42.91    \nframe=  407 fps=2.5 q=46.0 size=       1KiB time=00:00:03.38 bitrate=   1.3kbits/s speed=0.0207x elapsed=0:02:43.44    \nframe=  411 fps=2.5 q=45.0 size=       1KiB time=00:00:03.41 bitrate=   1.3kbits/s speed=0.0208x elapsed=0:02:43.97    \nframe=  416 fps=2.5 q=49.0 size=       1KiB time=00:00:03.45 bitrate=   1.3kbits/s speed=0.021x elapsed=0:02:44.49    \nframe=  419 fps=2.5 q=46.0 size=       1KiB time=00:00:03.48 bitrate=   1.3kbits/s speed=0.0211x elapsed=0:02:45.00    \nframe=  423 fps=2.6 q=46.0 size=       1KiB time=00:00:03.51 bitrate=   1.3kbits/s speed=0.0212x elapsed=0:02:45.52    \nframe=  427 fps=2.6 q=45.0 size=       1KiB time=00:00:03.55 bitrate=   1.3kbits/s speed=0.0214x elapsed=0:02:46.08    \nframe=  432 fps=2.6 q=49.0 size=       1KiB time=00:00:03.59 bitrate=   1.2kbits/s speed=0.0216x elapsed=0:02:46.59    \nframe=  435 fps=2.6 q=46.0 size=       1KiB time=00:00:03.61 bitrate=   1.2kbits/s speed=0.0216x elapsed=0:02:47.11    \nframe=  438 fps=2.6 q=49.0 size=       1KiB time=00:00:03.64 bitrate=   1.2kbits/s speed=0.0217x elapsed=0:02:47.62    \nframe=  442 fps=2.6 q=49.0 size=       1KiB time=00:00:03.67 bitrate=   1.2kbits/s speed=0.0219x elapsed=0:02:48.13    \nframe=  446 fps=2.6 q=48.0 size=       1KiB time=00:00:03.70 bitrate=   1.2kbits/s speed=0.022x elapsed=0:02:48.65    \nframe=  450 fps=2.7 q=48.0 size=       1KiB time=00:00:03.74 bitrate=   1.2kbits/s speed=0.0221x elapsed=0:02:49.17    \nframe=  454 fps=2.7 q=48.0 size=       1KiB time=00:00:03.77 bitrate=   1.2kbits/s speed=0.0222x elapsed=0:02:49.69    \nframe=  455 fps=2.7 q=46.0 size=       1KiB time=00:00:03.78 bitrate=   1.2kbits/s speed=0.0222x elapsed=0:02:50.19    \nframe=  460 fps=2.7 q=49.0 size=       1KiB time=00:00:03.82 bitrate=   1.2kbits/s speed=0.0224x elapsed=0:02:50.71    \nframe=  465 fps=2.7 q=35.0 size=       1KiB time=00:00:03.86 bitrate=   1.2kbits/s speed=0.0226x elapsed=0:02:51.23    \nframe=  470 fps=2.7 q=49.0 size=       1KiB time=00:00:03.90 bitrate=   1.1kbits/s speed=0.0228x elapsed=0:02:51.74    \nframe=  471 fps=2.7 q=46.0 size=       1KiB time=00:00:03.91 bitrate=   1.1kbits/s speed=0.0227x elapsed=0:02:52.26    \nframe=  475 fps=2.7 q=45.0 size=       1KiB time=00:00:03.95 bitrate=   1.1kbits/s speed=0.0229x elapsed=0:02:52.79    \nframe=  480 fps=2.8 q=49.0 size=       1KiB time=00:00:03.99 bitrate=   1.1kbits/s speed=0.023x elapsed=0:02:53.32    \nframe=  484 fps=2.8 q=49.0 size=       1KiB time=00:00:04.02 bitrate=   1.1kbits/s speed=0.0232x elapsed=0:02:53.82    \nframe=  487 fps=2.8 q=46.0 size=       1KiB time=00:00:04.05 bitrate=   1.1kbits/s speed=0.0232x elapsed=0:02:54.33    \nframe=  491 fps=2.8 q=45.0 size=       1KiB time=00:00:04.08 bitrate=   1.1kbits/s speed=0.0233x elapsed=0:02:54.88    \nframe=  496 fps=2.8 q=49.0 size=       1KiB time=00:00:04.12 bitrate=   1.1kbits/s speed=0.0235x elapsed=0:02:55.40    \nframe=  500 fps=2.8 q=49.0 size=       1KiB time=00:00:04.15 bitrate=   1.1kbits/s speed=0.0236x elapsed=0:02:55.92    \nframe=  505 fps=2.9 q=42.0 size=       1KiB time=00:00:04.20 bitrate=   1.1kbits/s speed=0.0238x elapsed=0:02:56.44    \nframe=  509 fps=2.9 q=43.0 size=       1KiB time=00:00:04.23 bitrate=   1.1kbits/s speed=0.0239x elapsed=0:02:56.96    \nframe=  513 fps=2.9 q=35.0 size=       1KiB time=00:00:04.26 bitrate=   1.0kbits/s speed=0.024x elapsed=0:02:57.48    \nframe=  517 fps=2.9 q=43.0 size=       1KiB time=00:00:04.30 bitrate=   1.0kbits/s speed=0.0242x elapsed=0:02:57.99    \nframe=  521 fps=2.9 q=43.0 size=       1KiB time=00:00:04.33 bitrate=   1.0kbits/s speed=0.0243x elapsed=0:02:58.51    \nframe=  523 fps=2.9 q=45.0 size=       1KiB time=00:00:04.35 bitrate=   1.0kbits/s speed=0.0243x elapsed=0:02:59.03    \nframe=  529 fps=2.9 q=36.0 size=       1KiB time=00:00:04.40 bitrate=   1.0kbits/s speed=0.0245x elapsed=0:02:59.55    \nframe=  533 fps=3.0 q=44.0 size=       1KiB time=00:00:04.43 bitrate=   1.0kbits/s speed=0.0246x elapsed=0:03:00.07    \nframe=  537 fps=3.0 q=43.0 size=       1KiB time=00:00:04.46 bitrate=   1.0kbits/s speed=0.0247x elapsed=0:03:00.58    \nframe=  541 fps=3.0 q=44.0 size=       1KiB time=00:00:04.50 bitrate=   1.0kbits/s speed=0.0248x elapsed=0:03:01.08    \nframe=  545 fps=3.0 q=36.0 size=       1KiB time=00:00:04.53 bitrate=   1.0kbits/s speed=0.025x elapsed=0:03:01.60    \nframe=  553 fps=3.0 q=43.0 size=       1KiB time=00:00:04.60 bitrate=   1.0kbits/s speed=0.0253x elapsed=0:03:02.12    \nframe=  553 fps=3.0 q=43.0 size=       1KiB time=00:00:04.60 bitrate=   1.0kbits/s speed=0.0252x elapsed=0:03:02.64    \nframe=  559 fps=3.1 q=45.0 size=       1KiB time=00:00:04.65 bitrate=   1.0kbits/s speed=0.0254x elapsed=0:03:03.16    \nframe=  565 fps=3.1 q=45.0 size=       1KiB time=00:00:04.70 bitrate=   1.0kbits/s speed=0.0256x elapsed=0:03:03.70    \nframe=  569 fps=3.1 q=43.0 size=       1KiB time=00:00:04.73 bitrate=   0.9kbits/s speed=0.0257x elapsed=0:03:04.22    \nframe=  571 fps=3.1 q=45.0 size=       1KiB time=00:00:04.75 bitrate=   0.9kbits/s speed=0.0257x elapsed=0:03:04.73    \nframe=  577 fps=3.1 q=36.0 size=    5120KiB time=00:00:04.80 bitrate=8738.1kbits/s speed=0.0259x elapsed=0:03:05.24    \nframe=  581 fps=3.1 q=47.0 size=    5120KiB time=00:00:04.83 bitrate=8677.9kbits/s speed=0.026x elapsed=0:03:05.76    \nframe=  585 fps=3.1 q=43.0 size=    5120KiB time=00:00:04.86 bitrate=8618.4kbits/s speed=0.0261x elapsed=0:03:06.28    \n[out#0/matroska @ 000001d4e26e90c0] video:5317KiB audio:0KiB subtitle:0KiB other streams:0KiB global headers:0KiB muxing overhead: 0.062534%\nframe=  600 fps=3.2 q=48.0 Lsize=    5321KiB time=00:00:04.99 bitrate=8732.0kbits/s speed=0.0267x elapsed=0:03:06.78    \n",
  "seconds": 187.9150779247284,
  "probe_out": {}
}